<svg version="1.1" xmlns="http://www.w3.org/2000/svg" xmlns:xlink="http://www.w3.org/1999/xlink" width="512px" height="457.94px" viewBox="0,0,256,228.96875"><g transform="translate(38.4,34.34531) scale(0.7,0.7)"><g fill="#000000" fill-rule="nonzero" stroke="none" stroke-width="1" stroke-linecap="butt" stroke-linejoin="miter" stroke-miterlimit="10" stroke-dasharray="" stroke-dashoffset="0" font-family="none" font-weight="none" font-size="none" text-anchor="none" style="mix-blend-mode: normal"><g transform="translate(0,-0.00062) scale(0.5,0.5)"><path d="M59.61,394.74v-113.08c0,-5.72 -3.33,-10.95 -10.01,-15.65c-6.68,-4.7 -14.63,-8.59 -23.94,-11.7c-9.29,-3.09 -17.88,-4.99 -25.66,-5.8v-41.95c7.78,-0.78 16.37,-2.55 25.66,-5.23c9.31,-2.71 17.26,-6.28 23.94,-10.66c6.68,-4.37 10.01,-9.47 10.01,-15.35v-113.05c0,-22.9 4.13,-39.05 12.32,-48.34c8.21,-9.31 21.15,-13.93 38.97,-13.93c12.89,0 25.58,0.56 38.14,1.77c12.56,1.18 23.84,2.52 33.87,3.97v37.93h-59.61v132.83c0,4.94 -0.8,9.39 -2.39,13.37c-1.58,3.97 -3.89,7.62 -6.92,10.97c-3.65,4.3 -8.56,8.19 -14.84,11.76c-6.28,3.57 -13.05,6.82 -20.3,9.77c-7.22,2.92 -14.14,5.64 -20.66,8.02v-5.26c6.912,2.36302 13.74865,4.94094 20.5,7.73c7.17,2.93 13.93,6.28 20.21,10.01c6.29,3.74 11.28,7.87 15.09,12.32c3.03,3.04 5.34,6.45 6.92,10.34c1.59,3.89 2.39,8.43 2.39,13.53v135.7h59.61v35.05c-10.03,2.71 -21.31,4.7 -33.87,6.04c-12.666,1.38813 -25.39816,2.08583 -38.14,2.09c-17.82,0 -30.76,-4.85 -38.97,-14.49c-8.19,-9.61 -12.32,-25.82 -12.32,-48.71zM452.39,394.74v-113.08c0,-5.72 3.32,-10.95 10.01,-15.65c6.65,-4.7 14.68,-8.59 23.99,-11.7c9.29,-3.09 17.8,-4.99 25.61,-5.8v-41.95c-7.81,-0.78 -16.32,-2.55 -25.61,-5.23c-9.31,-2.71 -17.34,-6.28 -23.99,-10.66c-6.69,-4.37 -10.01,-9.47 -10.01,-15.35v-113.05c0,-22.9 -4.06,-39.05 -12.24,-48.34c-8.19,-9.31 -21.23,-13.93 -39.05,-13.93c-12.86,0 -25.58,0.56 -38.14,1.77c-12.57,1.18 -23.86,2.52 -33.88,3.97v37.93h59.62v132.83c0,4.94 0.8,9.39 2.38,13.37c1.59,3.97 3.9,7.62 6.93,10.97c3.65,4.3 8.67,8.19 14.95,11.76c6.28,3.57 13.04,6.82 20.26,9.77c7.25,2.92 14.07,5.64 20.59,8.02v-5.26c-6.52,2.23 -13.34,4.78 -20.51,7.73c-6.93608,2.83998 -13.65415,6.18565 -20.1,10.01c-6.28,3.74 -11.38,7.87 -15.19,12.32c-3.03,3.04 -5.34,6.45 -6.93,10.34c-1.58,3.89 -2.38,8.43 -2.38,13.53v135.7h-59.62v35.05c10.02,2.71 21.31,4.7 33.88,6.04c12.56,1.37 25.28,2.09 38.14,2.09c17.82,0 30.86,-4.85 39.05,-14.49c8.18,-9.61 12.24,-25.82 12.24,-48.71z"></path></g></g></g></svg>